<?xml version="1.0" encoding="UTF-8"?>
<svg width="21.4788901px" height="26.9904854px" viewBox="0 0.78475 21.4788901 26.9904854" version="1.1" xmlns="http://www.w3.org/2000/svg" xmlns:xlink="http://www.w3.org/1999/xlink">
    <title>moovit logo primary</title>
    <g id="moovit-logo-primary" stroke="none" stroke-width="1" fill="none" fill-rule="evenodd">
        
        <g id="dude" transform="translate(0.000000, 0.784750)" fill-rule="nonzero">
            <path d="M10.7394451,0 C4.8084358,0 0,4.83375461 0,10.7962903 C0,18.8931483 10.7394451,26.9904854 10.7394451,26.9904854 C10.7394451,26.9904854 21.4788901,18.8931483 21.4788901,10.7962903 C21.4788901,4.83375461 16.6704535,0 10.7394451,0" id="Path" fill="#FF6400"></path>
            <path d="M16.8265588,9.77760614 C16.8240535,10.4175829 16.3036498,10.9345855 15.6636704,10.9328983 C15.0236911,10.9312028 14.5060273,10.4114568 14.5069039,9.7714758 C14.5077827,9.13149478 15.0268702,8.61317067 15.6668518,8.6132348 C16.3082961,8.6153195 16.8270487,9.13615865 16.8265588,9.77760614 L16.8265588,9.77760614 Z M5.89564633,8.61322438 C5.4241397,8.61124724 4.99795894,8.89375933 4.81616506,9.328815 C4.63437117,9.76387066 4.73283993,10.2656146 5.06557845,10.5996918 C5.39831696,10.9337689 5.89966155,11.0342514 6.33544361,10.8542057 C6.77122566,10.67416 7.05544658,10.2491169 7.05535269,9.77760614 C7.0559805,9.13610198 6.53714785,8.61518203 5.89564633,8.61322438 L5.89564633,8.61322438 Z M13.9398847,12.0389402 C13.7593429,12.0290494 13.5823309,12.0916921 13.4481987,12.2129429 C13.4363034,12.2234392 12.458763,13.07246 10.8859752,13.07246 C9.3103886,13.07246 8.10496588,12.102384 8.09446959,12.0937536 C7.95552865,11.9776947 7.77606169,11.9217967 7.59579096,11.9384317 C7.41552024,11.9550667 7.24931309,12.0428629 7.13395692,12.1823878 C6.89335845,12.4734503 6.93240015,12.904056 7.22142432,13.1470992 C7.38143277,13.2795836 8.84319395,14.442089 10.8859752,14.442089 C12.9915004,14.442089 14.3044501,13.2823824 14.3592635,13.2329353 C14.6393294,12.9799418 14.662969,12.5484326 14.4122159,12.2663589 C14.2915874,12.1303509 14.1214353,12.0484252 13.939888,12.0389402 L13.9398847,12.0389402 Z" id="face" fill="#11100D"></path>
        </g>
    </g>
</svg>
